<svg width="323" height="87" viewBox="0 0 323 87" fill="none" xmlns="http://www.w3.org/2000/svg" role="img" aria-label="Arclap">
<path d="M0 71.8219L24.3827 71.8217L35.6529 52.3011L48.1445 72.2391L65.9003 40.6367H42.3873L53.6578 21.1156L41.4664 0L0 71.8219Z" fill="#E5213C"/>
<path d="M317.775 38.5606C318.029 38.4192 318.254 38.2212 318.423 37.9383C318.592 37.6554 318.677 37.3159 318.677 36.8633C318.677 36.2127 318.451 35.6752 318.057 35.3075C317.635 34.9114 317.1 34.7417 316.424 34.7417H313.269V41.2763H314.48V38.985H316.142L317.353 41.2763H318.818L317.409 38.7304C317.522 38.7021 317.635 38.6455 317.775 38.5606ZM317.297 37.4291C317.184 37.5705 317.043 37.6554 316.846 37.712C316.649 37.7686 316.452 37.7969 316.255 37.7969H314.452V35.9298H316.283C316.649 35.9298 316.931 36.0147 317.128 36.1844C317.325 36.3541 317.409 36.5804 317.409 36.8633C317.466 37.1179 317.409 37.2877 317.297 37.4291Z" fill="currentColor"/>
<path d="M315.942 31.5461C312.393 31.5461 309.521 34.4316 309.521 37.9959C309.521 41.5603 312.393 44.4457 315.942 44.4457C319.49 44.4457 322.363 41.5603 322.363 37.9959C322.391 34.4316 319.49 31.5461 315.942 31.5461ZM315.942 43.1444C313.125 43.1444 310.816 40.8248 310.816 37.9959C310.816 35.1671 313.125 32.8474 315.942 32.8474C318.758 32.8474 321.068 35.1671 321.068 37.9959C321.068 40.853 318.786 43.1444 315.942 43.1444Z" fill="currentColor"/>
<path d="M265.32 52.1345C265.32 63.5268 274.56 72.7582 285.962 72.7582C297.365 72.7582 306.605 63.5268 306.605 52.1345C306.605 40.7422 297.365 31.5109 285.962 31.5109C274.56 31.5109 265.32 40.7422 265.32 52.1345ZM274.3 52.1345C274.3 45.7037 279.526 40.5002 285.945 40.5002C292.365 40.5002 297.59 45.721 297.59 52.1345C297.59 58.5481 292.365 63.7688 285.945 63.7688C279.526 63.7688 274.3 58.5654 274.3 52.1345Z" fill="currentColor"/>
<path d="M264.591 86.0635L274.298 86.0635L274.298 32.0236L264.591 32.0236L264.591 86.0635Z" fill="currentColor"/>
<path d="M237.237 31.511C225.834 31.511 216.594 40.7424 216.594 52.1347C216.594 63.5269 225.834 72.7583 237.237 72.7583C248.639 72.7583 257.879 63.5269 257.879 52.1347C257.879 40.7424 248.639 31.511 237.237 31.511ZM237.237 63.7863C230.8 63.7863 225.592 58.5655 225.592 52.1519C225.592 45.7384 230.817 40.5176 237.237 40.5176C243.656 40.5176 248.882 45.7384 248.882 52.1519C248.882 58.5655 243.673 63.7863 237.237 63.7863Z" fill="currentColor"/>
<path d="M258.608 32.0299H248.901V71.998H258.608V32.0299Z" fill="currentColor"/>
<path d="M205.456 57.7923V32.0304H195.75V59.4161C195.75 59.4432 195.75 59.4702 195.75 59.4973C195.75 59.5244 195.75 59.5244 195.75 59.5514V59.5785C195.805 66.4528 201.374 72.001 208.24 72.001H216.594V62.2849H209.943C207.456 62.2849 205.456 60.2822 205.456 57.7923Z" fill="currentColor"/>
<path d="M182.049 55.5064C180.596 60.2949 176.149 63.787 170.889 63.787C164.452 63.787 159.244 58.5662 159.244 52.1526C159.244 45.7218 164.469 40.5183 170.889 40.5183C176.149 40.5183 180.596 44.0104 182.049 48.7989H191.254C189.645 39.0143 181.132 31.5463 170.889 31.5463C159.486 31.5463 150.246 40.7776 150.246 52.1699C150.246 63.5622 159.486 72.759 170.889 72.759C181.149 72.759 189.645 65.2909 191.254 55.5064H182.049Z" fill="currentColor"/>
<path d="M133.113 32.0304H123.406V71.9985H133.113V32.0304Z" fill="currentColor"/>
<path d="M133.096 47.6235H144.343L153.566 32.0304H142.319L133.096 47.6235Z" fill="currentColor"/>
<path d="M96.0518 31.5111C84.649 31.5111 75.4092 40.7425 75.4092 52.1348C75.4092 63.5271 84.649 72.7584 96.0518 72.7584C107.455 72.7584 116.694 63.5271 116.694 52.1348C116.694 40.7425 107.455 31.5111 96.0518 31.5111ZM96.0518 63.7864C89.615 63.7864 84.4068 58.5656 84.4068 52.1521C84.4068 45.7385 89.6323 40.5178 96.0518 40.5178C102.471 40.5178 107.697 45.7385 107.697 52.1521C107.697 58.5656 102.489 63.7864 96.0518 63.7864Z" fill="currentColor"/>
<path d="M117.404 32.03H107.697V71.9981H117.404V32.03Z" fill="currentColor"/>
</svg>
